HIERARCHY
ROOT Hips
{
	OFFSET 0.00 0.00 0.00
	CHANNELS 6 Xposition Yposition Zposition Xrotation Yrotation Zrotation
	JOINT Spine
	{
		OFFSET 0.00000 5.89385 0.00000
		CHANNELS 3 Xrotation Yrotation Zrotation
		JOINT Head
		{
			OFFSET 0.00000 16.44715 0.00000
			CHANNELS 3 Xrotation Yrotation Zrotation
			End Site
			{
				OFFSET 0.00000 4.52755 0.00000
			}
		}
		JOINT LeftShoulder
		{
			OFFSET 0.00000 10.90038 0.00000
			CHANNELS 3 Xrotation Yrotation Zrotation
			JOINT LeftArm
			{
				OFFSET 8.21946 0.00000 0.00000
				CHANNELS 3 Xrotation Yrotation Zrotation
				JOINT LeftForeArm
				{
					OFFSET 11.09494 0.00000 0.00000
					CHANNELS 3 Yrotation Zrotation Xrotation
					JOINT LeftHand
					{
						OFFSET 9.10388 0.00000 0.00000
						CHANNELS 3 Xrotation Yrotation Zrotation
						JOINT LeftHandThumb1
						{
							OFFSET 0.00000 0.00000 0.00000
							CHANNELS 3 Xrotation Zrotation Yrotation
							End Site
							{
								OFFSET 0.00000 0.00000 3.93700
							}
						}
						End Site
						{
							OFFSET 3.93700 0.00000 0.00000
						}
					}
				}
			}
		}
		JOINT RightShoulder
		{
			OFFSET 0.00000 10.90038 0.00000
			CHANNELS 3 Xrotation Yrotation Zrotation
			JOINT RightArm
			{
				OFFSET -8.21946 0.00000 0.00000
				CHANNELS 3 Xrotation Yrotation Zrotation
				JOINT RightForeArm
				{
					OFFSET -11.09494 0.00000 0.00000
					CHANNELS 3 Yrotation Zrotation Xrotation
					JOINT RightHand
					{
						OFFSET -9.10388 0.00000 0.00000
						CHANNELS 3 Xrotation Yrotation Zrotation
						JOINT RightHandThumb1
						{
							OFFSET 0.00000 0.00000 0.00000
							CHANNELS 3 Xrotation Zrotation Yrotation
							End Site
							{
								OFFSET 0.00000 0.00000 3.93700
							}
						}
						End Site
						{
							OFFSET -3.93700 0.00000 0.00000
						}
					}
				}
			}
		}
	}
	JOINT LeftUpLeg
	{
		OFFSET 3.69794 0.00000 0.00000
		CHANNELS 3 Xrotation Yrotation Zrotation
		JOINT LeftLeg
		{
			OFFSET 0.00000 -16.18147 0.00000
			CHANNELS 3 Xrotation Yrotation Zrotation
			JOINT LeftFoot
			{
				OFFSET 0.00000 -16.50139 0.00000
				CHANNELS 3 Xrotation Yrotation Zrotation
				JOINT LeftToeBase
				{
					OFFSET 0.00000 -1.65857 6.18989
					CHANNELS 3 Xrotation Yrotation Zrotation
					End Site
					{
						OFFSET 0.00000 0.00000 2.95275
					}
				}
			}
		}
	}
	JOINT RightUpLeg
	{
		OFFSET -3.69794 0.00000 0.00000
		CHANNELS 3 Xrotation Yrotation Zrotation
		JOINT RightLeg
		{
			OFFSET 0.00000 -16.18147 0.00000
			CHANNELS 3 Xrotation Yrotation Zrotation
			JOINT RightFoot
			{
				OFFSET 0.00000 -16.50139 0.00000
				CHANNELS 3 Xrotation Yrotation Zrotation
				JOINT RightToeBase
				{
					OFFSET 0.00000 -1.65857 6.18989
					CHANNELS 3 Xrotation Yrotation Zrotation
					End Site
					{
						OFFSET 0.00000 0.00000 2.95275
					}
				}
			}
		}
	}
}
MOTION
Frames: 19
Frame Time: 0.008333
 4.7865 35.7353 1.4113 -19.5721 -67.4329 -22.8774 8.6637 1.6485 1.7796 23.0008 19.9923 1.8047 15.3091 11.7542 14.0723 -11.4016 -25.0850 -81.6695 -15.6881 0.0000 21.5777 3.0700 9.9311 -17.2748 33.1476 -0.0000 26.2537 57.8274 -12.5626 17.5532 -47.4252 31.1857 83.2299 7.1394 -0.0000 -33.6810 0.4511 -3.1241 8.2198 32.8623 0.0000 -24.3270 15.4298 25.8888 -6.3165 6.9636 0.0000 0.0000 -18.5296 7.1386 3.6862 8.1119 -0.0000 0.0000 -27.5540 1.7650 -30.4861 151.3661 -0.0000 -0.0000 37.9527 12.0689 5.6273 16.4913 0.0000 -0.0000
 4.7910 35.7264 1.4174 -19.8619 -67.7996 -23.1577 8.7196 1.6487 1.7199 23.0355 19.9435 1.7741 15.3589 11.7425 14.0493 -11.4180 -25.1068 -81.6754 -15.6253 0.0000 21.5450 3.0691 9.9812 -17.1892 33.1476 -0.0000 26.2537 57.8942 -12.5608 17.6202 -47.4354 31.2293 83.2544 7.2003 -0.0000 -33.9525 0.4347 -3.0348 8.1550 32.8623 0.0000 -24.3270 15.4022 26.2490 -6.3920 7.1002 0.0000 -0.0000 -18.6308 7.1209 3.6353 8.1123 0.0000 -0.0000 -27.6020 1.5472 -30.7792 151.3907 0.0000 0.0000 38.0271 12.0307 5.6560 16.5392 -0.0000 -0.0000
 4.7942 35.7176 1.4250 -20.2128 -68.1840 -23.4881 8.7834 1.6406 1.6458 23.0768 19.9318 1.7454 15.4005 11.7416 14.0482 -11.4364 -25.0970 -81.7106 -15.5347 0.0000 21.5781 3.0681 9.9873 -17.1738 33.1476 -0.0000 26.2537 57.9640 -12.5468 17.6741 -47.4520 31.2667 83.2843 7.2720 -0.0000 -34.1965 0.4318 -3.0438 8.0790 32.8623 0.0000 -24.3270 15.4371 26.4872 -6.5099 7.1375 -0.0000 -0.0000 -18.7143 7.2445 3.6436 8.1976 0.0000 -0.0000 -27.6158 1.3697 -31.0958 151.4169 -0.0000 -0.0000 38.0893 12.0966 5.5497 16.6382 0.0000 0.0000
 4.7969 35.7100 1.4346 -20.5955 -68.5898 -23.8598 8.8270 1.6543 1.6085 23.1936 19.9308 1.6604 15.4289 11.7220 14.0124 -11.4133 -25.0938 -81.7222 -15.4581 0.0000 21.6115 3.0674 9.9830 -17.1770 33.1476 -0.0000 26.2537 58.0167 -12.5497 17.6886 -47.4514 31.2045 83.3312 7.3316 -0.0000 -34.3456 0.4274 -3.0219 8.0546 32.8623 0.0000 -24.3270 15.4619 26.9966 -6.6101 7.2486 -0.0000 0.0000 -18.8133 7.1570 3.5677 8.2770 0.0000 -0.0000 -27.5854 1.2113 -31.4134 151.4287 -0.0000 0.0000 38.0115 12.2727 5.3682 17.1796 -0.0000 0.0000
 4.7980 35.7036 1.4453 -20.9657 -68.9900 -24.2281 8.8472 1.6741 1.5758 23.3373 19.9010 1.6438 15.4918 11.7071 13.9708 -11.4267 -25.1310 -81.7356 -15.3761 0.0000 21.6250 3.0762 10.0262 -17.1544 33.1476 -0.0000 26.2537 58.0508 -12.5529 17.7176 -47.3927 31.1482 83.3501 7.4063 -0.0000 -34.4695 0.4188 -2.9636 8.0477 32.8623 0.0000 -24.3270 15.5631 27.0991 -6.7593 7.1283 0.0000 -0.0000 -18.8523 7.4414 3.5314 8.4092 0.0000 -0.0000 -27.5874 1.0241 -31.7285 151.4444 0.0000 -0.0000 37.9999 12.2658 5.4796 17.4066 0.0000 0.0000
 4.7985 35.6974 1.4551 -21.3391 -69.3873 -24.5957 8.8566 1.6808 1.5301 23.4742 19.8968 1.6467 15.5304 11.7022 13.9574 -11.4160 -25.1496 -81.7628 -15.3294 0.0000 21.6644 3.0655 9.9834 -17.1664 33.1476 -0.0000 26.2537 58.1006 -12.5582 17.7484 -47.3472 31.2009 83.3778 7.4763 -0.0000 -34.7087 0.4209 -2.9856 8.0274 32.8623 0.0000 -24.3270 15.6474 27.2634 -6.8992 7.0494 -0.0000 -0.0000 -18.9239 7.6874 3.4521 8.6291 0.0000 -0.0000 -27.5687 0.8706 -32.0488 151.4644 0.0000 0.0000 37.8631 12.0803 6.2282 18.2822 -0.0000 0.0000
 4.7973 35.6909 1.4661 -21.8041 -69.7967 -25.0570 8.8854 1.6765 1.5014 23.6456 19.8981 1.6079 15.5441 11.7351 13.9229 -11.3975 -25.1399 -81.7890 -15.2745 0.0000 21.7849 3.0566 9.9416 -17.1867 33.1476 -0.0000 26.2537 58.1663 -12.5685 17.7574 -47.3589 31.1971 83.4323 7.5180 -0.0000 -34.8775 0.4184 -2.9849 7.9821 32.8623 0.0000 -24.3270 15.7441 27.5430 -7.0293 7.0147 0.0000 -0.0000 -19.0194 7.8535 3.2771 8.9018 -0.0000 -0.0000 -27.5718 0.6800 -32.3723 151.4709 -0.0000 0.0000 37.9862 12.0022 6.4576 18.3725 0.0000 0.0000
 4.7967 35.6859 1.4794 -22.2268 -70.1957 -25.4862 8.8827 1.6688 1.4992 23.8378 19.8854 1.5603 15.5764 11.7642 13.8718 -11.4037 -25.1407 -81.8061 -15.2166 0.0000 21.9361 3.0587 9.8624 -17.3266 33.1476 -0.0000 26.2537 58.2088 -12.6088 17.7785 -47.3317 31.1630 83.4759 7.5420 -0.0000 -35.0534 0.4134 -2.9364 8.0178 32.8623 0.0000 -24.3270 15.8100 27.8664 -7.1406 7.0119 -0.0000 0.0000 -19.1474 7.9859 3.0511 9.2714 0.0000 -0.0000 -27.5972 0.4112 -32.6924 151.4835 0.0000 0.0000 38.2192 12.0151 5.9528 17.5785 -0.0000 0.0000
 4.7950 35.6831 1.4893 -22.6151 -70.5914 -25.9110 8.8560 1.6594 1.5139 24.0389 19.8707 1.5510 15.6209 11.7857 13.8241 -11.4015 -25.1096 -81.8297 -15.1807 0.0000 21.9108 3.0580 9.8462 -17.3493 33.1476 -0.0000 26.2537 58.2574 -12.6362 17.8275 -47.3179 31.1916 83.4999 7.5203 -0.0000 -35.2801 0.4176 -2.9478 8.0670 32.8623 0.0000 -24.3270 15.8367 28.2595 -7.2010 7.0379 -0.0000 -0.0000 -19.2635 8.0517 2.7557 9.5661 -0.0000 0.0000 -27.6115 0.1295 -32.9751 151.4807 0.0000 -0.0000 38.3322 12.0030 5.8890 17.3041 -0.0000 -0.0000
 4.7942 35.6821 1.4932 -22.9521 -70.9840 -26.3302 8.8080 1.6368 1.5692 24.2333 19.8342 1.5432 15.6451 11.8070 13.7794 -11.4008 -24.9797 -81.8586 -15.1393 0.0000 22.0274 3.0589 9.7992 -17.4313 33.1476 -0.0000 26.2537 58.2693 -12.6180 17.8460 -47.2796 30.9012 83.5138 7.5230 -0.0000 -35.2896 0.4358 -3.0462 8.1464 32.8623 0.0000 -24.3270 15.8427 28.8578 -7.2043 7.0507 0.0000 0.0000 -19.3572 7.8981 2.4523 9.8023 0.0000 -0.0000 -27.6587 -0.1895 -33.2191 151.4827 -0.0000 0.0000 38.4269 12.0141 5.8816 17.1884 -0.0000 0.0000
 4.7920 35.6810 1.5019 -23.3420 -71.3308 -26.7550 8.7928 1.5432 1.5809 24.4237 19.8190 1.5355 15.6848 11.8515 13.7425 -11.3969 -24.9389 -81.8907 -15.1210 0.0000 21.8364 3.0838 9.8910 -17.4132 33.1476 -0.0000 26.2537 58.3093 -12.6221 17.8661 -47.2698 30.8880 83.5620 7.5346 -0.0000 -35.6846 0.4198 -3.0128 7.9358 32.8623 0.0000 -24.3270 15.8432 29.1882 -7.2326 7.1211 -0.0000 0.0000 -19.4640 7.9548 2.1342 10.0102 0.0000 0.0000 -27.6319 -0.4931 -33.5375 151.4643 0.0000 0.0000 38.5610 12.1094 5.7498 17.0791 0.0000 0.0000
 4.7935 35.6808 1.5074 -23.6674 -71.6568 -27.1118 8.7793 1.4481 1.5713 24.5434 19.8032 1.5850 15.6913 11.8560 13.7337 -11.3838 -24.8263 -81.9153 -15.1088 0.0000 21.9033 3.0808 9.8229 -17.5092 33.1476 -0.0000 26.2537 58.3452 -12.5961 17.8959 -47.2111 30.8008 83.5691 7.6079 -0.0000 -35.8580 0.4200 -3.0659 7.8052 32.8623 0.0000 -24.3270 15.7815 29.5414 -7.2327 7.2590 0.0000 -0.0000 -19.5816 7.9742 1.7520 10.2085 -0.0000 0.0000 -27.6448 -0.8194 -33.8572 151.4476 0.0000 -0.0000 38.6484 12.0708 5.8386 16.9857 0.0000 0.0000
 4.7900 35.6817 1.5143 -23.8313 -71.9787 -27.2950 8.6856 1.3361 1.5312 24.6837 19.7701 1.6614 15.7029 11.8997 13.7467 -11.3772 -24.8654 -81.9452 -15.0793 0.0000 21.8462 3.0806 9.8311 -17.4947 33.1476 -0.0000 26.2537 58.4237 -12.5847 17.9617 -47.1729 30.7080 83.5911 7.6299 -0.0000 -36.0007 0.4080 -2.9706 7.8237 32.8623 0.0000 -24.3270 15.7127 29.7686 -7.2711 7.3285 0.0000 0.0000 -19.6587 8.0802 1.4991 10.4667 0.0000 -0.0000 -27.6588 -1.1580 -34.2056 151.4161 0.0000 -0.0000 38.6458 12.0717 5.8646 16.9628 0.0000 -0.0000
 4.7881 35.6833 1.5251 -24.1932 -72.3501 -27.7103 8.6328 1.3153 1.5640 24.8053 19.7354 1.7076 15.7605 11.8748 13.7240 -11.3879 -24.8353 -81.9740 -15.0966 0.0000 21.9403 3.0830 9.7922 -17.5723 33.1476 -0.0000 26.2537 58.4889 -12.5924 17.9954 -47.0791 30.6425 83.5800 7.7359 -0.0000 -36.2180 0.3899 -2.8864 7.6966 32.8623 0.0000 -24.3270 15.7018 30.0673 -7.3103 7.3421 0.0000 -0.0000 -19.6634 8.2056 1.1744 10.4381 0.0000 -0.0000 -27.6329 -1.3995 -34.4815 151.3855 -0.0000 0.0000 38.5992 12.0147 6.0752 17.0936 0.0000 -0.0000
 4.7878 35.6834 1.5381 -24.5801 -72.7473 -28.1188 8.5794 1.3080 1.5596 24.8549 19.6997 1.7536 15.7424 11.8917 13.7172 -11.3580 -24.9270 -81.9934 -15.1085 0.0000 21.9726 3.0850 9.7613 -17.6349 33.1476 -0.0000 26.2537 58.5864 -12.6203 18.0363 -47.0709 30.5171 83.6150 7.7951 -0.0000 -36.3026 0.3823 -2.8743 7.5799 32.8623 0.0000 -24.3270 15.7033 30.4477 -7.4005 7.3686 0.0000 -0.0000 -19.6867 8.2417 1.0546 10.4810 -0.0000 0.0000 -27.5802 -1.5298 -34.7842 151.3664 0.0000 0.0000 38.3699 11.8923 6.7845 17.7811 0.0000 0.0000
 4.7866 35.6861 1.5476 -24.9778 -73.1576 -28.5796 8.5119 1.3395 1.5893 24.8939 19.6793 1.8465 15.7987 11.8869 13.6927 -11.4059 -24.9453 -82.0083 -15.1383 0.0000 22.1159 3.1060 9.7409 -17.7818 33.1476 -0.0000 26.2537 58.6658 -12.6355 18.0842 -46.9810 30.4590 83.5866 7.9143 -0.0000 -36.4353 0.3799 -2.8702 7.5440 32.8623 0.0000 -24.3270 15.6779 30.6444 -7.4643 7.3343 0.0000 -0.0000 -19.6969 8.4411 1.1476 10.5299 -0.0000 -0.0000 -27.5541 -1.7129 -35.0127 151.3319 -0.0000 0.0000 38.3001 11.8094 7.0131 18.2186 -0.0000 -0.0000
 4.7858 35.6881 1.5570 -25.3858 -73.5434 -29.0617 8.4696 1.3137 1.6460 24.8759 19.6642 1.8742 15.8116 11.8936 13.6721 -11.3889 -25.0094 -82.0147 -15.1771 0.0000 22.0771 3.1034 9.7547 -17.7446 33.1476 -0.0000 26.2537 58.7548 -12.6606 18.1063 -46.9521 30.4966 83.5819 7.9653 -0.0000 -36.5821 0.3704 -2.8287 7.4630 32.8623 0.0000 -24.3270 15.6420 30.7664 -7.5127 7.3029 0.0000 -0.0000 -19.6952 8.7076 1.2292 10.4758 -0.0000 0.0000 -27.5071 -1.9272 -35.2300 151.3019 0.0000 0.0000 38.2655 11.7668 6.9927 18.0396 -0.0000 0.0000
 4.7853 35.6905 1.5616 -25.8032 -73.9456 -29.5749 8.4171 1.3262 1.7025 24.8304 19.6604 1.9739 15.8663 11.8853 13.6635 -11.4310 -24.9539 -82.0336 -15.2362 0.0000 22.1595 3.1229 9.7577 -17.8444 33.1476 -0.0000 26.2537 58.8284 -12.6833 18.1632 -46.8764 30.5655 83.5302 8.0585 -0.0000 -36.7007 0.3741 -2.8385 7.5112 32.8623 0.0000 -24.3270 15.5723 30.9641 -7.5239 7.2965 0.0000 0.0000 -19.7359 8.9372 1.2778 10.5089 0.0000 -0.0000 -27.4597 -2.1035 -35.3699 151.2708 0.0000 -0.0000 38.3373 11.7827 6.9701 17.5040 -0.0000 0.0000
 4.7818 35.6936 1.5605 -26.0995 -74.3190 -29.9694 8.3336 1.2776 1.7434 24.7842 19.7194 2.0644 15.8363 11.9181 13.6800 -11.4178 -24.9719 -82.0326 -15.2301 0.0000 22.1964 3.1058 9.6705 -17.9011 33.1476 -0.0000 26.2537 58.9030 -12.6887 18.1782 -46.8398 30.4641 83.5375 8.0982 -0.0000 -36.6693 0.3716 -2.8021 7.5578 32.8623 0.0000 -24.3270 15.4637 31.1432 -7.5045 7.3050 -0.0000 0.0000 -19.7716 9.1286 1.3207 10.5163 0.0000 -0.0000 -27.3937 -2.3063 -35.5180 151.2397 0.0000 -0.0000 38.3848 11.8910 6.8947 17.3966 -0.0000 -0.0000
